<svg id="Layer_3" data-name="Layer 3" xmlns="http://www.w3.org/2000/svg" viewBox="0 0 50 50"><defs><style>.cls-1{fill:#1b4e96;}.cls-2{fill:#fff;}</style></defs><circle class="cls-1" cx="25" cy="25.42" r="22.97"/><path class="cls-2" d="M38.53,13.14H11.47a1.2,1.2,0,0,0-1.2,1.2V32.73a1.2,1.2,0,0,0,1.2,1.2h7.12v.49c0,1.42,0,2.83,0,4.25a1.7,1.7,0,0,0,.08.55.67.67,0,0,0,1,.36l.32-.23q3.45-2.6,6.89-5.17a1.33,1.33,0,0,1,.69-.24H38.53a1.2,1.2,0,0,0,1.2-1.2V14.34A1.2,1.2,0,0,0,38.53,13.14Z"/><circle class="cls-1" cx="19.99" cy="23.71" r="1.77"/><circle class="cls-1" cx="24.99" cy="23.71" r="1.77"/><circle class="cls-1" cx="29.99" cy="23.71" r="1.77"/></svg>