<?xml version="1.0" encoding="utf-8"?>
<!-- Generator: Adobe Illustrator 25.2.1, SVG Export Plug-In . SVG Version: 6.00 Build 0)  -->
<svg version="1.2" baseProfile="tiny" id="Layer_1" xmlns="http://www.w3.org/2000/svg" xmlns:xlink="http://www.w3.org/1999/xlink"
	 x="0px" y="0px" viewBox="0 0 32 32" overflow="visible" xml:space="preserve">
<path fill-rule="evenodd" fill="#FFFFFF" d="M16,0c8.84,0,16,7.16,16,16s-7.16,16-16,16S0,24.84,0,16S7.16,0,16,0z M20.84,11.29
	c-3.53-0.12-7.1-0.15-10.65,0.1c-1.05,0.07-1.73,0.7-1.9,1.75c-0.31,1.88-0.37,3.81-0.21,5.7c0.12,1.35,0.23,2.95,1.82,3.28
	c1.04,0.22,2.11,0.18,3.17,0.2l3.28,0.06c0.01,0,0.02,0,0.02,0.01c1.83,0.03,3.61-0.07,5.43-0.21c1.45-0.1,1.8-1.17,1.98-2.44
	c0.22-1.54,0.27-3.09,0.16-4.64c-0.12-1.53-0.16-3.35-1.98-3.68C21.59,11.35,21.21,11.3,20.84,11.29L20.84,11.29z M14.43,14.41
	c1.36,0.79,2.71,1.58,4.09,2.38c-1.37,0.79-2.71,1.58-4.09,2.38L14.43,14.41z"/>
</svg>
