<?xml version="1.0" encoding="utf-8"?>
<!-- Generator: Adobe Illustrator 25.2.1, SVG Export Plug-In . SVG Version: 6.00 Build 0)  -->
<svg version="1.2" baseProfile="tiny" id="Layer_1" xmlns="http://www.w3.org/2000/svg" xmlns:xlink="http://www.w3.org/1999/xlink"
	 x="0px" y="0px" viewBox="0 0 32 32" overflow="visible" xml:space="preserve">
<path fill-rule="evenodd" fill="#FFFFFF" d="M16,0c8.84,0,16,7.16,16,16s-7.16,16-16,16S0,24.84,0,16S7.16,0,16,0z M16.69,9.6h-1.47
	l-0.09,0h-0.17c-0.83,0-1.08,0.01-1.59,0.04c-0.68,0.03-1.15,0.14-1.55,0.3c-0.42,0.16-0.78,0.38-1.13,0.74
	c-0.36,0.36-0.57,0.71-0.74,1.13c-0.16,0.41-0.27,0.87-0.3,1.55c-0.03,0.58-0.04,0.82-0.04,1.95v1.37c0,1.13,0.01,1.37,0.04,1.95
	c0.03,0.68,0.14,1.15,0.3,1.55c0.16,0.42,0.38,0.78,0.74,1.13c0.36,0.35,0.71,0.57,1.13,0.74c0.41,0.16,0.87,0.27,1.55,0.3
	c0.48,0.02,0.73,0.03,1.43,0.04l0.16,0h0.17l0.19,0h1.74l0.16,0c0.7,0,0.95-0.01,1.43-0.04c0.68-0.03,1.15-0.14,1.55-0.3
	c0.42-0.16,0.78-0.38,1.13-0.74c0.36-0.36,0.58-0.71,0.74-1.13c0.16-0.41,0.27-0.87,0.3-1.55c0.03-0.68,0.04-0.9,0.04-2.64
	s-0.01-1.96-0.04-2.64c-0.03-0.68-0.14-1.15-0.3-1.55c-0.16-0.42-0.38-0.78-0.74-1.13c-0.35-0.36-0.71-0.57-1.13-0.74
	c-0.41-0.16-0.87-0.27-1.55-0.3C18.06,9.61,17.82,9.6,16.69,9.6L16.69,9.6z M16.25,10.75h0.61c0.95,0,1.19,0.01,1.73,0.04
	c0.62,0.03,0.96,0.13,1.19,0.22c0.3,0.12,0.51,0.26,0.74,0.48c0.23,0.22,0.36,0.44,0.48,0.74c0.09,0.23,0.19,0.56,0.22,1.19
	c0.03,0.57,0.03,0.81,0.04,1.91v1.35c0,1.11-0.01,1.34-0.04,1.91c-0.03,0.62-0.13,0.96-0.22,1.19c-0.12,0.3-0.25,0.51-0.48,0.74
	c-0.22,0.22-0.44,0.36-0.74,0.48c-0.23,0.09-0.56,0.19-1.19,0.22c-0.51,0.02-0.75,0.03-1.56,0.04l-0.26,0h-1.44
	c-1.11,0-1.34-0.01-1.91-0.04c-0.62-0.03-0.96-0.13-1.19-0.22c-0.3-0.12-0.51-0.25-0.74-0.48c-0.22-0.22-0.36-0.44-0.48-0.74
	c-0.09-0.23-0.19-0.57-0.22-1.19c-0.03-0.61-0.04-0.83-0.04-2.12v-0.94c0-1.28,0.01-1.51,0.04-2.12c0.03-0.62,0.13-0.96,0.22-1.19
	c0.12-0.3,0.26-0.51,0.48-0.74s0.44-0.36,0.74-0.48c0.23-0.09,0.56-0.19,1.19-0.22c0.47-0.02,0.71-0.03,1.4-0.03h0.15l0.17,0h0.39
	l0.23,0C15.76,10.75,16.25,10.75,16.25,10.75z M16,12.71c-1.82,0-3.29,1.47-3.29,3.29s1.47,3.29,3.29,3.29s3.29-1.47,3.29-3.29
	c0-1.75-1.37-3.18-3.1-3.28L16,12.71z M16,13.87c1.18,0,2.13,0.96,2.13,2.13c0,1.13-0.87,2.05-1.98,2.13L16,18.13l-0.15-0.01
	c-1.11-0.08-1.98-1-1.98-2.13s0.87-2.05,1.98-2.13L16,13.87z M19.42,11.82l-0.1,0.01c-0.38,0.05-0.66,0.37-0.66,0.76
	c0,0.43,0.34,0.77,0.77,0.77c0.42,0,0.77-0.34,0.77-0.77S19.84,11.82,19.42,11.82z"/>
</svg>
