<svg xmlns="http://www.w3.org/2000/svg" width="126" height="26" viewBox="0 0 126 26">
    <g fill="none" fill-rule="evenodd">
        <g fill="#fff" fill-rule="nonzero">
            <g>
                <g>
                    <path d="M9.644 17l13.065 8-10.26-3.453-7.321.464L9.644 17zM3.484 6.09l4.574 4.545L0 23.545l3.232-10.617.251-6.837zm21.423-3.635L21.675 13.15l-.42 6.76-4.406-3.851 8.058-13.604zm99.994 13.818c.595 0 1.099.5 1.099 1.09 0 .592-.504 1.092-1.099 1.092s-1.099-.5-1.099-1.091.504-1.091 1.1-1.091zm-81.69-8c.821 0 1.513.308 2.075.881.562.617.865 1.279.865 2.072 0 .75-.303 1.454-.865 2.116.562.66.865 1.366.865 2.115 0 .838-.303 1.543-.865 2.116-.51.52-1.129.823-1.854.874l-.221.008h-9.513V8.273h9.513zm11.924 0v7.184c0 .353.131.661.393.926.224.189.48.313.77.345l.146.008h7.289v1.719h-7.289c-.829 0-1.527-.309-2.094-.882-.516-.52-.816-1.151-.866-1.89l-.007-.226V8.273h1.658zm25.513 0c.78 0 1.475.264 1.996.837.513.521.81 1.151.86 1.89l.008.226v7.184h-1.65v-2.115h-9.155v2.16h-1.649V11.27c0-.837.304-1.543.868-2.116.513-.52 1.133-.823 1.861-.874l.222-.007h6.639zm19.746 0c.821 0 1.513.264 2.032.837.51.521.808 1.151.857 1.89l.008.226v4.231c0 .838-.303 1.543-.865 2.116-.511.52-1.13.823-1.822.874l-.21.008h-9.557V8.273h9.557zm21.943 0v1.675h-8.801c-.344 0-.644.132-.902.396-.257.265-.386.573-.386.926 0 .353.129.617.386.882.221.188.473.313.757.344l.145.008h8.801v1.675h-8.801c-.344 0-.644.088-.902.353-.257.22-.386.529-.386.881 0 .353.129.661.386.926.221.227.473.356.757.388l.145.009h8.801v1.719h-8.801c-.816 0-1.503-.309-2.061-.882s-.859-1.278-.859-2.116c0-.749.3-1.454.859-2.115-.558-.662-.859-1.367-.859-2.116 0-.838.3-1.543.859-2.116.512-.525 1.095-.791 1.85-.832l.21-.005h8.802zm2.564 8.182c-.503 0-.916.409-.916.909s.413.909.916.909c.458 0 .916-.41.916-.91s-.412-.908-.916-.908zm.054.15c.244 0 .349.103.349.415 0 .227-.08.375-.217.408l-.062.007.279.624h-.14l-.279-.624h-.174v.624h-.14v-1.455h.384zm-.21.207v.416h.226c.113-.004.193-.026.193-.208 0-.156-.059-.195-.132-.205l-.038-.003h-.248zm-81.534-2.545h-7.87v2.557h7.87c.346 0 .648-.133.908-.397s.346-.573.389-.926c0-.352-.13-.617-.39-.881-.259-.22-.561-.353-.907-.353zm57.183-4.275H92.48v6.788h7.914c.345 0 .605-.133.864-.397.223-.227.35-.486.382-.777l.008-.149v-4.143c0-.353-.13-.661-.39-.926-.26-.264-.519-.396-.864-.396zM80.69 9.904h-6.639c-.347 0-.65.132-.911.396-.223.227-.35.486-.383.777l-.008.149v3.394h9.2v-3.394c0-.353-.13-.661-.391-.926-.26-.264-.52-.396-.868-.396zm-37.48.088h-7.87v2.556h7.87c.346 0 .648-.088.908-.352.26-.265.346-.573.389-.882 0-.353-.13-.661-.39-.926-.259-.264-.561-.396-.907-.396zM2.198 1l10.135 3.453 6.714.084L15.062 9 2.198 1z" transform="translate(-412 -281) translate(102 207) translate(310 74)"/>
                </g>
            </g>
        </g>
    </g>
</svg>
