<svg xmlns="http://www.w3.org/2000/svg" width="194" height="40" viewBox="0 0 194 40">
    <g fill="none" fill-rule="evenodd">
        <g fill="#000" fill-rule="nonzero">
            <g>
                <g>
                    <path d="M14.848 25.814l20.117 12.407-15.796-5.355-11.274.719 6.953-7.771zM5.363 8.895l7.044 7.048L0 35.965 4.976 19.5l.387-10.604zm32.986-5.64l-4.976 16.588-.646 10.483-6.785-5.972L38.349 3.256zm153.96 21.431c.916 0 1.691.775 1.691 1.692 0 .916-.775 1.692-1.692 1.692-.916 0-1.692-.776-1.692-1.692 0-.917.776-1.692 1.692-1.692zM66.53 12.279c1.265 0 2.33.479 3.196 1.367.865.957 1.331 1.983 1.331 3.213 0 1.162-.466 2.256-1.331 3.281.865 1.026 1.331 2.12 1.331 3.281 0 1.3-.466 2.393-1.331 3.282-.808.829-1.79 1.301-2.946 1.36l-.25.007H51.884V12.28H66.53zm18.36 0v11.142c0 .547.201 1.026.604 1.436.353.299.757.493 1.213.537l.198.01h11.222v2.666H86.906c-1.276 0-2.351-.479-3.225-1.367-.815-.83-1.28-1.838-1.338-3.025l-.006-.257V12.28h2.554zm39.28 0c1.204 0 2.272.41 3.074 1.299.81.83 1.272 1.837 1.33 3.024l.006.257v11.142h-2.538v-3.28h-14.097v3.349h-2.539V16.927c0-1.298.468-2.392 1.336-3.28.81-.83 1.796-1.302 2.956-1.362l.251-.006h10.222zm30.403 0c1.265 0 2.33.41 3.13 1.299.807.83 1.267 1.837 1.325 3.024l.006.257v6.562c0 1.3-.466 2.393-1.332 3.282-.807.829-1.79 1.301-2.89 1.36l-.239.007H139.86V12.28h14.714zm33.786 0v2.598h-13.55c-.53 0-.993.205-1.39.615-.396.41-.594.889-.594 1.435 0 .547.198.957.595 1.368.347.299.745.493 1.193.537l.195.01h13.551v2.597h-13.55c-.53 0-.993.137-1.39.547-.396.342-.594.82-.594 1.367s.198 1.025.595 1.436c.352.364.757.567 1.214.607l.174.008h13.551v2.666h-13.55c-1.257 0-2.315-.479-3.174-1.367-.86-.889-1.322-1.983-1.322-3.282 0-1.162.463-2.255 1.322-3.28-.86-1.026-1.322-2.12-1.322-3.282 0-1.299.463-2.392 1.322-3.281.802-.83 1.72-1.242 2.913-1.293l.26-.006h13.551zm3.948 12.689c-.775 0-1.41.634-1.41 1.41 0 .775.635 1.41 1.41 1.41.705 0 1.41-.635 1.41-1.41 0-.776-.634-1.41-1.41-1.41zm.083.232c.376 0 .537.161.537.645 0 .362-.13.594-.352.637l-.078.007.43.967h-.215l-.43-.967h-.268v.967h-.215V25.2h.59zm.053.323h-.375v.644h.338c.179-.004.306-.036.306-.322 0-.251-.097-.307-.217-.32l-.052-.002zM66.531 21.576H54.414v3.965H66.53c.532 0 .999-.206 1.398-.616.4-.41.533-.888.6-1.435 0-.547-.2-.957-.6-1.367-.4-.342-.866-.547-1.398-.547zm88.043-6.631H142.39v10.527h12.184c.533 0 .932-.205 1.332-.615.355-.365.552-.783.592-1.256l.007-.18v-6.425c0-.547-.2-1.026-.6-1.436-.399-.41-.798-.615-1.33-.615zm-30.335-.137h-10.222c-.535 0-1.002.205-1.403.616-.356.364-.554.783-.594 1.255l-.007.18v5.264h14.163v-5.264c0-.547-.2-1.025-.601-1.435-.4-.41-.802-.616-1.336-.616zm-57.708.137H54.414v3.965H66.53c.532 0 .999-.137 1.398-.547.4-.41.533-.889.6-1.367 0-.547-.2-1.026-.6-1.436-.4-.41-.866-.615-1.398-.615zM3.384 1l15.605 5.355 10.337.13-6.136 6.922L3.384 1z" transform="translate(-117 -268) translate(102 207) translate(15 61)"/>
                </g>
            </g>
        </g>
    </g>
</svg>
